<?xml version="1.0" encoding="utf-8"?>
<!-- Generator: Adobe Illustrator 21.1.0, SVG Export Plug-In . SVG Version: 6.00 Build 0)  -->
<svg version="1.1" id="Layer_1" xmlns="http://www.w3.org/2000/svg" xmlns:xlink="http://www.w3.org/1999/xlink" x="0px" y="0px"
	 viewBox="0 0 238 63" style="enable-background:new 0 0 238 63;" xml:space="preserve">
<style type="text/css">
	.st0{fill:#E9202F;}
	.st1{fill:#FFFFFF;stroke:#FFFFFF;stroke-miterlimit:10;}
	.st2{fill:#79797C;}
	.st3{fill:#FFFFFF;}
</style>
<g>
	<path class="st0" d="M6.2,6.7v29.4H2.6c0,0,0-22.3,0-33.5h5.7c0,0,11.8,27.5,12,28.1c0.5-0.7,12-28.1,12-28.1H38v33.6l-3.6,0.1
		c0-9.8,0-19.4,0-29.5C33.5,8.9,22,36.1,22,36.1h-3.4L6.2,6.7z"/>
	<path class="st0" d="M144.8,2.5c1.2,0,2.3,0,3.7,0c-0.2,0.6-9.6,33.7-9.6,33.7l-4.6,0l-7.5-26.5l-7.2,26.5l-4.3,0l-9.9-33.7
		l3.7-0.1c0,0,7.5,27.1,8.1,28.3c0.3-0.4,7.7-27.1,8-28.3c1.2,0,2.4,0,3.6,0c0.2,0.8,7.7,28.6,8,28.9
		C137.4,28.9,144.5,3.5,144.8,2.5z"/>
	<path class="st0" d="M68.2,36.1c0-11.3,0-22.4,0-33.7c4.5,0,9-0.1,13.5,0.1c2.4,0.1,4.7,0.9,6.9,1.9c2.1,1,3.9,2.6,5.2,4.4
		c1.2,1.7,2.1,3.7,2.6,5.7c0.7,2.6,0.6,5.4,0.4,8c-0.3,2.8-1.5,5-3.2,7.5c-0.8,1.2-2,2.1-3.1,2.9c-1.9,1.3-3.1,1.7-5.2,2.4
		c-1.4,0.5-3.6,0.7-5.3,0.8C76.1,36.4,68.4,36.2,68.2,36.1z M71.9,5.7c0,9.2,0,18.2,0,27.3c1.8,0,3.5,0.1,5.3,0
		c2.3-0.1,4.6-0.2,7-0.7c1.5-0.3,2.9-1.2,4.2-2.1c2.4-1.7,3.6-4.2,4.5-6.9c0.5-1.7,0.4-3.4,0.4-5c0.1-3.3-1.4-6.1-3.5-8.6
		c-2.4-2.9-5.9-3.7-9.4-4C77.6,5.4,74.7,5.7,71.9,5.7z"/>
	<path class="st0" d="M188,26.6c1.1,0,2.9,0,3.7,0.1l0.1,1.4c0.3,1.7,1.5,3.5,3.1,4.3c3.5,1.6,7.5,1.4,9.4-2c1.3-2.5,1.1-7.5-3-9.2
		c-1.7-0.7-3.4-1.1-5.1-1.5c-2.7-0.8-5.3-2-6.5-5.1c-0.9-2.5-0.8-4-0.3-6.5c0.7-3.2,3.3-5.5,6.5-6c3.6-0.6,8.1-0.4,10.6,3.3
		c1,1.5,1.4,3.4,1.5,5.7c0-0.2-3.6,0-3.6,0c-0.1-2.9-1.7-4.1-2.6-4.8c-2.6-2-7.2-0.9-8.4,1c-1.5,2.3-1.1,5.6,0.2,7
		c0.8,0.9,1.9,1.5,2.9,1.8c1.9,0.7,3.9,1.2,5.8,1.9c2.9,1,4.9,2.8,5.9,5.6c1,2.5,0.2,6.2-0.3,7.3c-0.8,1.9-1.8,3.2-3.4,4.5
		c-1.7,1.3-6.1,1.4-6.8,1.3c-3.2-0.4-5.9-1-7.7-3.4C188.7,31.5,188.2,29.4,188,26.6z"/>
	<path class="st0" d="M177.5,2.6c0,1,0,2,0,3.1c-5,0-9.9,0-14.9,0c0,4,0,11.9,0,11.9H177l0,3.2h-14.5V33h14.9v3.1h-18.6V2.6
		C165,2.6,171.2,2.6,177.5,2.6z"/>
	<path class="st0" d="M228.1,36.2c-1.3,0-2.4,0-3.6,0c0-10.1,0-20.3,0-30.5c-2.1,0-7.8,0-7.8,0c0-0.4,0-2.6,0-3.1
		c6.3,0,12.7,0,19.1,0c0,0.9,0,1.9,0,3c-2.5,0-5,0-7.7,0C228.1,15.9,228.1,26,228.1,36.2z"/>
	<path class="st0" d="M51.4,2.5c1.2,0,2.3,0,3.5,0c0,11.2,0,22.4,0,33.6c-1.2,0-2.3,0-3.5,0C51.4,24.9,51.4,13.8,51.4,2.5z"/>
</g>
<g>
	<path class="st1" d="M16.7,83.9c-0.1-0.4-0.3-0.8-0.6-1.1c-0.6-0.7-1.6-1-2.6-1c-1,0-2.1,0.4-2.7,1.2c-0.4,0.5-0.5,1-0.5,1.6
		c0.3,3.7,6,0.8,6.7,4.2c0.5,2.2-1.6,3.5-3.5,3.5c-1.5,0-3.3-0.9-3.5-2.6l0-0.1l0.2,0l0,0.1c0.2,1.6,1.9,2.4,3.3,2.4
		c1.8,0,3.7-1.2,3.3-3.3c-0.7-3.1-6.4-0.3-6.7-4.2c-0.1-0.6,0.1-1.2,0.5-1.8c1.5-2,5.7-1.7,6.2,1l0,0.1l-0.2,0L16.7,83.9z"/>
	<path class="st1" d="M27.2,89.3v-7.7h0.2v7.7c0,1.8,1.8,2.7,3.4,2.7c1.6,0,3.4-0.9,3.4-2.7v-7.7h0.2v7.7c0,1.9-1.9,3-3.6,3
		C29.1,92.3,27.2,91.3,27.2,89.3z"/>
	<path class="st1" d="M44.8,92.2h-0.2V81.8v-0.1h0.1h3.4c4.1,0,4.1,6.2,0,6.2h-1.7l4.7,4.4h-0.3l-4.7-4.4v-0.2h2
		c3.8,0,3.8-5.7,0-5.7h-3.3V92.2z"/>
	<path class="st1" d="M61.3,92.2H61c0-3.5,0-7,0-10.5h5.5v0.2h-5.3v4.9h4.7V87h-4.7V92.2z"/>
	<path class="st1" d="M81.4,88.6h-5.2l-1.4,3.5h-0.2l4.1-10.7h0.2L83,92.2h-0.2L81.4,88.6z M76.3,88.4h5l-2.5-6.6L76.3,88.4z"/>
	<path class="st1" d="M101,84.9c-0.2-0.6-0.6-1.1-1-1.5c-0.9-0.9-2.1-1.5-3.4-1.5c-1.3,0-2.5,0.6-3.4,1.5c-0.9,0.9-1.4,2.2-1.4,3.5
		c0,1.4,0.5,2.6,1.4,3.5c0.9,0.9,2.1,1.5,3.4,1.5c1.3,0,2.5-0.6,3.4-1.5c0.4-0.4,0.7-0.9,1-1.5h0.2c-0.2,0.6-0.6,1.2-1.1,1.6
		c-0.9,1-2.2,1.5-3.5,1.5c-1.4,0-2.6-0.6-3.5-1.5c-0.9-0.9-1.5-2.3-1.5-3.7c0-1.4,0.6-2.8,1.5-3.7c0.9-1,2.2-1.5,3.5-1.5
		c1.4,0,2.6,0.6,3.5,1.5c0.4,0.5,0.8,1,1.1,1.6H101z"/>
	<path class="st1" d="M111.4,92h5.4v0.2h-5.6h0V81.7h5.6v0.2h-5.4v4.9h5.3V87h-5.3V92z"/>
	<path class="st1" d="M147,83.9c-0.1-0.4-0.3-0.8-0.6-1.1c-0.6-0.7-1.6-1-2.6-1c-1,0-2.1,0.4-2.7,1.2c-0.4,0.5-0.5,1-0.5,1.6
		c0.3,3.7,6,0.8,6.7,4.2c0.5,2.2-1.6,3.5-3.5,3.5c-1.5,0-3.3-0.9-3.5-2.6l0-0.1l0.2,0l0,0.1c0.2,1.6,1.9,2.4,3.3,2.4
		c1.8,0,3.7-1.2,3.3-3.3c-0.7-3.1-6.4-0.3-6.7-4.2c-0.1-0.6,0.1-1.2,0.5-1.8c1.5-2,5.7-1.7,6.2,1l0,0.1l-0.2,0L147,83.9z"/>
	<path class="st1" d="M157.4,89.3v-7.7h0.2v7.7c0,1.8,1.8,2.7,3.4,2.7c1.6,0,3.4-0.9,3.4-2.7v-7.7h0.2v7.7c0,1.9-1.9,3-3.6,3
		C159.3,92.3,157.4,91.3,157.4,89.3z"/>
	<path class="st1" d="M174.8,81.6h0.1h3.4c4.1,0,4.1,6.5,0,6.5H175v4h-0.2c0-3.5,0-6.9,0-10.4V81.6z M178.3,88c3.8,0,3.8-6.1,0-6.1
		H175V88H178.3z"/>
	<path class="st1" d="M191.2,81.6h0.1h3.4c4.1,0,4.1,6.5,0,6.5h-3.3v4h-0.2c0-3.5,0-6.9,0-10.4V81.6z M194.7,88c3.8,0,3.8-6.1,0-6.1
		h-3.3V88H194.7z"/>
	<path class="st1" d="M207.8,91.9h5.5v0.2c-1.9,0-3.8,0-5.7,0V81.7h0.2V91.9z"/>
	<path class="st1" d="M220.3,81.7l3.6,5.9l3.6-5.9h0.3l-3.8,6.2v4.3h-0.2v-4.3l-3.8-6.2H220.3z"/>
</g>
<g>
	<polygon class="st2" points="79,46.7 77.1,52.1 80.9,52.1 79,46.7 	"/>
	<path class="st2" d="M194.6,46.6h-3v4.2h3c1.7,0,2.5-0.7,2.5-2.1C197.1,47.4,196.3,46.6,194.6,46.6z"/>
	<path class="st2" d="M178.3,46.6h-3v4.2h3c1.7,0,2.5-0.7,2.5-2.1C180.8,47.4,180,46.6,178.3,46.6z"/>
	<path class="st2" d="M2.5,41.3v19.4h232.8V41.3H2.5z M14,57.1c-2.6,0-4.7-1.2-4.7-4h1.4c0,1.9,1.6,2.8,3.3,2.8
		c1.4,0,2.9-0.4,2.9-2.1c0-1.6-1.8-1.8-3.6-2.2s-3.7-0.9-3.7-3c0-2.3,2.1-3.3,4.1-3.3c2.3,0,4.1,1.1,4.2,3.6h-1.4
		c-0.2-1.6-1.3-2.3-2.8-2.3c-1.3,0-2.6,0.5-2.6,2c0,1.4,1.8,1.6,3.7,2c1.8,0.4,3.6,1.1,3.6,3.3C18.5,56.1,16.1,57.1,14,57.1z
		 M35.5,52.7c0,2.9-1.6,4.4-4.5,4.4c-2.9,0-4.7-1.4-4.7-4.4v-7.3h1.5v7.3c0,2,1.2,3.1,3.2,3.1c1.9,0,3-1.1,3-3.1v-7.3h1.5V52.7z
		 M51.4,56.8C51,56.3,51.2,55.1,51,54c-0.2-1.1-0.4-2.1-1.9-2.1h-3.7v4.9h-1.5V45.4h5.4c2.1,0,3.5,1.2,3.5,3c0,1.4-0.6,2.5-2,2.9v0
		c1.3,0.3,1.6,1.2,1.7,2.4c0.1,1.1,0,2.4,0.7,3.2H51.4z M68.3,46.6h-6v3.6h5.2v1.3h-5.2v5.2h-1.5V45.4h7.5V46.6z M82.7,56.8
		l-1.2-3.4h-4.8l-1.3,3.4h-1.6l4.5-11.4h1.7l4.5,11.4H82.7z M96.2,57.1c-3.6,0-5.3-2.6-5.3-6c0-3.3,1.9-6,5.4-6
		c2.4,0,4.4,1.3,4.7,3.7h-1.5c-0.3-1.6-1.6-2.4-3.2-2.4c-2.7,0-3.9,2.2-3.9,4.6c0,2.6,1.2,4.8,3.9,4.8c2,0,3.2-1.4,3.3-3.3h1.5
		C100.8,55.3,99.1,57.1,96.2,57.1z M116.9,56.8H109V45.4h7.9v1.3h-6.4v3.6h5.9v1.3h-5.9v4h6.4V56.8z M144,57.1c-2.6,0-4.7-1.2-4.7-4
		h1.4c0,1.9,1.6,2.8,3.3,2.8c1.4,0,2.9-0.4,2.9-2.1c0-1.6-1.8-1.8-3.7-2.2c-1.8-0.4-3.7-0.9-3.7-3c0-2.3,2.1-3.3,4.1-3.3
		c2.3,0,4.1,1.1,4.2,3.6h-1.4c-0.2-1.6-1.3-2.3-2.8-2.3c-1.3,0-2.6,0.5-2.6,2c0,1.4,1.8,1.6,3.7,2c1.8,0.4,3.6,1.1,3.6,3.3
		C148.4,56.1,146,57.1,144,57.1z M165.4,52.7c0,2.9-1.6,4.4-4.5,4.4c-2.9,0-4.7-1.4-4.7-4.4v-7.3h1.5v7.3c0,2,1.2,3.1,3.2,3.1
		c1.9,0,3-1.1,3-3.1v-7.3h1.5V52.7z M178.8,52.1h-3.5v4.7h-1.5V45.4h5c2.3,0,3.5,1.3,3.5,3.4C182.3,50.9,181.1,52.1,178.8,52.1z
		 M195.1,52.1h-3.5v4.7h-1.5V45.4h5c2.3,0,3.5,1.3,3.5,3.4C198.6,50.9,197.4,52.1,195.1,52.1z M214,56.8h-7.6V45.4h1.5v10.1h6V56.8z
		 M224.3,52.1v4.7h-1.5v-4.7l-4.4-6.8h1.8l3.4,5.4l3.3-5.4h1.7L224.3,52.1z"/>
	<path class="st2" d="M51.2,48.6c0-1.1-0.6-2-2-2h-3.8v4h3.2C50,50.6,51.2,50.3,51.2,48.6z"/>
</g>
<g>
	<path class="st3" d="M18.7,68.4c-0.2-1.6-1.3-2.3-2.8-2.3c-1.3,0-2.6,0.5-2.6,2c0,1.4,1.8,1.6,3.7,2c1.8,0.4,3.6,1.1,3.6,3.3
		c0,2.4-2.4,3.4-4.5,3.4c-2.6,0-4.7-1.2-4.7-4h1.4c0,1.9,1.6,2.8,3.3,2.8c1.4,0,2.9-0.4,2.9-2.1c0-1.6-1.8-1.8-3.6-2.2
		s-3.7-0.9-3.7-3c0-2.3,2.1-3.3,4.1-3.3c2.3,0,4.1,1.1,4.2,3.6H18.7z"/>
	<path class="st3" d="M37.6,72.3c0,2.9-1.6,4.4-4.5,4.4c-2.9,0-4.7-1.4-4.7-4.4V65h1.5v7.3c0,2,1.2,3.1,3.2,3.1c1.9,0,3-1.1,3-3.1
		V65h1.5V72.3z"/>
	<path class="st3" d="M46,65h5.4c2.1,0,3.5,1.2,3.5,3c0,1.4-0.6,2.5-2,2.9v0c1.3,0.3,1.6,1.2,1.7,2.4c0.1,1.1,0,2.4,0.7,3.2h-1.7
		c-0.4-0.5-0.2-1.7-0.4-2.8c-0.2-1.1-0.4-2.1-1.9-2.1h-3.7v4.9H46V65z M50.7,70.3c1.4,0,2.6-0.4,2.6-2c0-1.1-0.6-2-2-2h-3.8v4H50.7z
		"/>
	<path class="st3" d="M62.9,65h7.5v1.3h-6v3.6h5.2v1.3h-5.2v5.2h-1.5V65z"/>
	<path class="st3" d="M80.3,65H82l4.5,11.4h-1.7L83.6,73h-4.8l-1.3,3.4h-1.6L80.3,65z M79.2,71.7h3.9l-1.9-5.3h0L79.2,71.7z"/>
	<path class="st3" d="M101.6,68.5c-0.3-1.6-1.6-2.4-3.2-2.4c-2.7,0-3.9,2.2-3.9,4.6c0,2.6,1.2,4.8,3.9,4.8c2,0,3.2-1.4,3.3-3.3h1.5
		c-0.3,2.8-2.1,4.6-4.9,4.6c-3.6,0-5.3-2.6-5.3-6c0-3.3,1.9-6,5.4-6c2.4,0,4.4,1.3,4.7,3.7H101.6z"/>
	<path class="st3" d="M111.1,65h7.9v1.3h-6.4v3.6h5.9v1.3h-5.9v4h6.4v1.3h-7.9V65z"/>
	<path class="st3" d="M148.6,68.4c-0.2-1.6-1.3-2.3-2.8-2.3c-1.3,0-2.6,0.5-2.6,2c0,1.4,1.8,1.6,3.7,2c1.8,0.4,3.6,1.1,3.6,3.3
		c0,2.4-2.4,3.4-4.5,3.4c-2.6,0-4.7-1.2-4.7-4h1.4c0,1.9,1.6,2.8,3.3,2.8c1.4,0,2.9-0.4,2.9-2.1c0-1.6-1.8-1.8-3.7-2.2
		c-1.8-0.4-3.7-0.9-3.7-3c0-2.3,2.1-3.3,4.1-3.3c2.3,0,4.1,1.1,4.2,3.6H148.6z"/>
	<path class="st3" d="M167.5,72.3c0,2.9-1.6,4.4-4.5,4.4c-2.9,0-4.7-1.4-4.7-4.4V65h1.5v7.3c0,2,1.2,3.1,3.2,3.1c1.9,0,3-1.1,3-3.1
		V65h1.5V72.3z"/>
	<path class="st3" d="M175.9,65h5c2.3,0,3.5,1.3,3.5,3.4c0,2.1-1.2,3.4-3.5,3.4h-3.5v4.7h-1.5V65z M177.4,70.5h3
		c1.7,0,2.5-0.7,2.5-2.1c0-1.4-0.8-2.1-2.5-2.1h-3V70.5z"/>
	<path class="st3" d="M192.3,65h5c2.3,0,3.5,1.3,3.5,3.4c0,2.1-1.2,3.4-3.5,3.4h-3.5v4.7h-1.5V65z M193.8,70.5h3
		c1.7,0,2.5-0.7,2.5-2.1c0-1.4-0.8-2.1-2.5-2.1h-3V70.5z"/>
	<path class="st3" d="M208.6,65h1.5v10.1h6v1.3h-7.6V65z"/>
	<path class="st3" d="M226.4,71.8v4.7h-1.5v-4.7l-4.4-6.8h1.8l3.4,5.4l3.3-5.4h1.7L226.4,71.8z"/>
</g>
</svg>
