<?xml version="1.0" standalone="no"?>
<!DOCTYPE svg PUBLIC "-//W3C//DTD SVG 20010904//EN"
 "http://www.w3.org/TR/2001/REC-SVG-20010904/DTD/svg10.dtd">
<svg version="1.0" xmlns="http://www.w3.org/2000/svg"
 width="260.000000pt" height="260.000000pt" viewBox="0 0 260.000000 260.000000"
 preserveAspectRatio="xMidYMid meet">
<metadata>
Created by potrace 1.11, written by Peter Selinger 2001-2013
</metadata>
<g transform="translate(0.000000,260.000000) scale(0.100000,-0.100000)"
fill="#000000" stroke="none">
<path d="M1310 2593 c-27 -11 -74 -55 -107 -100 -83 -116 -124 -298 -128 -563
-4 -201 4 -288 36 -395 46 -153 93 -212 258 -324 174 -118 222 -181 250 -332
23 -127 4 -364 -38 -462 -71 -165 -229 -185 -324 -41 -63 96 -103 267 -106
450 l-1 52 -56 -1 -56 0 6 -131 c7 -154 11 -187 38 -321 47 -234 146 -386 269
-415 196 -47 351 174 386 550 14 160 5 377 -21 505 -43 208 -104 297 -294 423
-140 93 -196 158 -218 252 -4 19 -9 42 -11 50 -2 8 -4 67 -4 130 -1 201 41
333 122 388 47 33 117 27 161 -14 71 -67 119 -236 127 -450 1 -19 6 -21 54
-20 l52 1 1 65 c1 58 -7 156 -21 263 -11 87 -48 215 -80 282 -62 126 -114 165
-215 164 -36 0 -72 -3 -80 -6z"/>
<path d="M2064 2574 c-135 -92 -204 -303 -209 -644 -5 -309 33 -474 139 -597
20 -23 89 -77 154 -121 174 -118 216 -172 247 -321 15 -72 15 -280 0 -356 -23
-119 -72 -205 -135 -238 -71 -37 -168 -6 -219 69 -64 94 -106 272 -110 464
l-1 46 -56 2 -57 2 7 -138 c4 -75 9 -153 12 -172 37 -257 89 -395 184 -491 84
-85 179 -101 267 -46 153 97 236 342 237 697 0 264 -33 432 -110 561 -43 72
-94 119 -226 207 -114 77 -160 125 -189 202 -60 157 -34 460 47 568 53 69 135
82 197 31 66 -54 105 -156 124 -319 9 -86 11 -103 12 -132 1 -26 3 -27 57 -26
l56 2 -6 106 c-8 146 -21 239 -50 365 -20 90 -64 182 -113 236 -50 55 -81 69
-156 69 -53 0 -71 -5 -103 -26z"/>
<path d="M50 1305 l0 -1245 55 0 55 0 1 1023 1 1022 23 -165 c13 -91 25 -183
29 -205 3 -22 8 -67 11 -100 4 -33 8 -67 10 -75 2 -8 7 -42 10 -75 4 -33 8
-67 10 -75 3 -8 7 -40 10 -70 3 -30 7 -66 10 -80 2 -14 7 -50 10 -80 3 -30 8
-66 10 -80 2 -14 14 -99 25 -190 11 -91 23 -176 25 -190 2 -14 6 -46 9 -72 3
-25 13 -97 21 -160 21 -154 25 -187 40 -308 15 -126 11 -120 66 -120 40 0 49
3 50 18 0 9 2 26 4 37 3 11 7 40 10 65 6 54 8 69 36 275 11 88 23 174 25 190
2 17 6 53 10 80 4 28 8 61 9 75 2 14 5 43 9 65 7 51 44 336 51 395 6 50 11 93
25 195 5 39 12 88 14 110 3 22 10 76 16 120 6 45 13 99 15 120 3 22 7 51 10
65 2 14 7 50 10 80 4 30 10 80 14 110 5 30 9 -407 10 -972 l1 -1028 55 0 55 0
0 1245 0 1245 -80 0 c-69 0 -80 -2 -81 -17 0 -10 -2 -27 -4 -38 -2 -11 -6 -38
-9 -60 -10 -90 -27 -221 -31 -244 -5 -31 -14 -93 -20 -151 -3 -25 -7 -56 -9
-70 -3 -14 -7 -47 -11 -75 -9 -80 -25 -207 -31 -250 -4 -22 -8 -56 -10 -75 -2
-19 -8 -66 -13 -105 -6 -38 -13 -90 -16 -115 -3 -25 -7 -61 -10 -80 -3 -19 -7
-55 -10 -80 -4 -25 -8 -56 -10 -70 -2 -14 -7 -46 -10 -72 -3 -26 -9 -78 -14
-115 -5 -38 -12 -93 -16 -123 -3 -30 -10 -82 -15 -115 -9 -58 -21 -157 -23
-182 0 -7 -3 -13 -7 -13 -4 0 -13 48 -20 108 -7 59 -14 115 -16 126 -2 10 -6
44 -9 75 -4 31 -8 67 -10 81 -3 14 -7 48 -10 75 -3 28 -8 61 -10 75 -2 14 -7
45 -10 70 -3 25 -9 77 -15 115 -5 39 -12 90 -15 115 -11 89 -51 398 -61 475
-3 22 -7 51 -9 65 -3 14 -6 45 -9 70 -3 25 -7 59 -10 75 -2 17 -12 89 -21 160
-9 72 -18 141 -20 155 -2 14 -7 52 -11 84 -3 33 -8 67 -9 75 -2 9 -4 24 -4 34
-1 15 -12 17 -81 17 l-80 0 0 -1245z"/>
</g>
</svg>
